<svg width="2629" height="1314" viewBox="0 0 2629 1314" fill="none" xmlns="http://www.w3.org/2000/svg">
    <path d="M0 0H2629V1310H0V0Z" fill="#A4F8FD"/>
    <rect x="0.5" y="1055.5" width="2628" height="254" fill="#53AC51" stroke="black"/>
    <path d="M357.434 452.712H541.366C541.366 452.712 604.186 535.212 589.882 580.212C575.577 625.212 541.366 1077.71 541.366 1077.71H357.434C357.434 1077.71 360.411 791.5 392 746C423.589 700.5 357.434 452.712 357.434 452.712Z" fill="#A77832"/>
    <path d="M1002 299.174C1002 386.711 777.695 457.674 501 457.674C224.305 457.674 0 386.711 0 299.174C0 211.637 584 -56.2875 621.5 110.674C659 277.635 1002 211.637 1002 299.174Z" fill="#69E44B"/>
    <path d="M1725.5 652.033H1909.43C1909.43 652.033 2135.3 1258.5 2121 1303.5C2106.7 1348.5 1935.36 1217.07 1909.43 1277.03C1883.5 1337 1725.5 1277.03 1725.5 1277.03C1725.5 1277.03 1716.98 1101.32 1748.57 1055.82C1780.16 1010.32 1725.5 652.033 1725.5 652.033Z" fill="#A77832"/>
    <path d="M2347 428.914C2347 573.108 2122.69 690 1846 690C1569.31 690 1333.65 830.866 1345 428.914C1356.35 26.9626 1818.28 114.48 1966.5 118.413C2114.72 122.345 2347 284.721 2347 428.914Z" fill="#69E44B"/>
    </svg>
    