<svg width="118" height="100" viewBox="0 0 118 100" fill="none" xmlns="http://www.w3.org/2000/svg">
    <path d="M88.3097 52.6051L82.1523 65.2475C81.8434 65.8819 80.9744 65.9809 80.4971 65.4361L70.9688 54.5599C69.0332 52.3504 65.9582 51.5178 63.2365 52.4661L52.2206 56.3042C51.3803 56.597 50.5775 55.7197 50.9544 54.9204L55.9845 44.2531C57.1443 41.7934 56.7238 38.847 54.9101 36.7261L47.0446 27.5282C46.4553 26.8389 46.9859 25.8097 47.8816 25.9047L59.6231 27.1498C62.524 27.4574 65.2667 25.9619 66.5198 23.3891L72.688 10.7244C72.997 10.09 73.866 9.99104 74.3432 10.5358L83.8547 21.3929C85.8048 23.6189 88.9097 24.4457 91.6429 23.4669L101.444 19.9569C102.293 19.653 103.106 20.5483 102.712 21.3517L97.5936 31.771C96.3603 34.2816 96.7947 37.3246 98.6937 39.4783L106.575 48.4165C107.182 49.1057 106.646 50.1548 105.74 50.0509L95.266 48.851C92.3453 48.5164 89.5721 50.013 88.3097 52.6051Z" fill="#F80000" stroke="#E11B00" stroke-width="6"/>
    <path d="M9.1554 70.6188L9.47165 70.8843L9.57367 71.0149C16.2016 79.5005 24.7284 86.6587 34.6198 92.041L34.7721 92.1238L35.0883 92.3893" stroke="#B69133" stroke-width="5" stroke-linecap="square"/>
    <path d="M45.3924 36.1602L45.7086 36.4257L45.8106 36.5564C52.4386 45.0419 60.9654 52.2002 70.8568 57.5825L71.0091 57.6653L71.3253 57.9308" stroke="#8B8986" stroke-width="5" stroke-linecap="square"/>
    <path d="M3.49915 72.31L6.60194 76.0593C12.5716 83.273 19.9459 89.4636 28.3755 94.3381L32.7568 96.8716" stroke="#DBAF3E" stroke-width="6" stroke-linecap="round"/>
    <path d="M38.8311 39.3702C39.7223 38.5227 41.2443 38.5829 42.0347 39.4967L44.2256 42.0301C49.8408 48.5228 56.5739 54.1752 64.1761 58.7784L67.1423 60.5745C68.2124 61.2224 68.3743 62.5759 67.4831 63.4233L39.8333 89.7162C39.1206 90.3938 37.9662 90.5113 37.1105 89.9931L32.7617 87.3599C25.7091 83.0895 19.4627 77.8457 14.2535 71.8224L11.0413 68.1083C10.4093 67.3774 10.4687 66.3407 11.1813 65.663L38.8311 39.3702Z" fill="#E8C15C" stroke="#DBAF3E" stroke-width="6"/>
    <path d="M76.2255 54.9739C75.8857 55.3816 75.2042 55.5705 74.5224 55.2322C70.9983 53.4836 65.1052 50.2073 59.4884 45.492C53.8716 40.7768 49.845 35.7256 47.6723 32.6918L45.1318 34.1548L47.6723 32.6918C47.2542 32.1079 47.4153 31.4793 47.8609 31.1383C51.9141 28.0373 56.4128 26.2648 60.8645 26.113C65.2518 25.9634 69.9391 27.3733 74.5084 31.2092C79.0372 35.011 80.8608 39.1351 80.944 43.0987C81.0286 47.1249 79.3187 51.2621 76.2255 54.9739Z" fill="#D9D9D9" stroke="#A19F9B" stroke-width="6"/>
    <g filter="url(#filter0_i_0_1)">
    <path d="M10.7159 8.09091C10.6307 7.37121 10.285 6.8125 9.67898 6.41477C9.07292 6.01705 8.32955 5.81818 7.44886 5.81818C6.80492 5.81818 6.24148 5.92235 5.75852 6.13068C5.2803 6.33901 4.90625 6.62547 4.63636 6.99006C4.37121 7.35464 4.23864 7.76894 4.23864 8.23295C4.23864 8.62121 4.33097 8.95502 4.51562 9.23438C4.70502 9.509 4.9465 9.73864 5.24006 9.9233C5.53362 10.1032 5.84138 10.2524 6.16335 10.3707C6.48532 10.4844 6.78125 10.5767 7.05114 10.6477L8.52841 11.0455C8.9072 11.1449 9.3286 11.2822 9.79261 11.4574C10.2614 11.6326 10.7088 11.8717 11.1349 12.1747C11.5658 12.473 11.9209 12.8565 12.2003 13.3253C12.4796 13.794 12.6193 14.3693 12.6193 15.0511C12.6193 15.8371 12.4134 16.5473 12.0014 17.1818C11.5942 17.8163 10.9976 18.3205 10.2116 18.6946C9.4304 19.0687 8.48106 19.2557 7.36364 19.2557C6.32197 19.2557 5.41998 19.0876 4.65767 18.7514C3.90009 18.4152 3.3035 17.9465 2.8679 17.3452C2.43703 16.7438 2.19318 16.0455 2.13636 15.25H3.95455C4.00189 15.7992 4.18655 16.2538 4.50852 16.6136C4.83523 16.9687 5.24716 17.2339 5.74432 17.4091C6.24621 17.5795 6.78598 17.6648 7.36364 17.6648C8.03598 17.6648 8.63968 17.5559 9.17472 17.3381C9.70975 17.1155 10.1335 16.8078 10.446 16.4148C10.7585 16.017 10.9148 15.553 10.9148 15.0227C10.9148 14.5398 10.7798 14.1468 10.5099 13.8438C10.2401 13.5407 9.88494 13.2945 9.4446 13.1051C9.00426 12.9157 8.52841 12.75 8.01705 12.608L6.22727 12.0966C5.09091 11.7699 4.19129 11.3035 3.52841 10.6974C2.86553 10.0914 2.53409 9.2983 2.53409 8.31818C2.53409 7.50379 2.75426 6.79356 3.1946 6.1875C3.63968 5.5767 4.23627 5.10322 4.98438 4.76705C5.73722 4.42614 6.57765 4.25568 7.50568 4.25568C8.44318 4.25568 9.27652 4.42377 10.0057 4.75994C10.7348 5.09138 11.3125 5.54593 11.7386 6.12358C12.1695 6.70123 12.3968 7.35701 12.4205 8.09091H10.7159ZM15.288 23.0909V8.09091H16.9073V9.82386H17.1062C17.2293 9.63447 17.3997 9.39299 17.6175 9.09943C17.8401 8.80114 18.1573 8.53598 18.5692 8.30398C18.9859 8.06723 19.5494 7.94886 20.2596 7.94886C21.1781 7.94886 21.9878 8.1785 22.6886 8.63778C23.3893 9.09706 23.9362 9.74811 24.3292 10.5909C24.7222 11.4337 24.9187 12.428 24.9187 13.5739C24.9187 14.7292 24.7222 15.7306 24.3292 16.5781C23.9362 17.4209 23.3917 18.0743 22.6957 18.5384C21.9996 18.9976 21.1971 19.2273 20.288 19.2273C19.5872 19.2273 19.0262 19.1113 18.6048 18.8793C18.1834 18.6425 17.859 18.375 17.6317 18.0767C17.4045 17.7737 17.2293 17.5227 17.1062 17.3239H16.9641V23.0909H15.288ZM16.9357 13.5455C16.9357 14.3693 17.0565 15.0961 17.2979 15.7259C17.5394 16.3509 17.8922 16.8409 18.3562 17.196C18.8202 17.5464 19.3884 17.7216 20.0607 17.7216C20.7615 17.7216 21.3462 17.5369 21.815 17.1676C22.2885 16.7936 22.6436 16.2917 22.8803 15.6619C23.1218 15.0275 23.2425 14.322 23.2425 13.5455C23.2425 12.7784 23.1242 12.0871 22.8874 11.4716C22.6554 10.8513 22.3027 10.3613 21.8292 10.0014C21.3604 9.63684 20.771 9.45455 20.0607 9.45455C19.3789 9.45455 18.806 9.62737 18.342 9.97301C17.878 10.3139 17.5276 10.7921 17.2908 11.4077C17.0541 12.0185 16.9357 12.7311 16.9357 13.5455ZM32.0494 19.2273C30.9982 19.2273 30.0915 18.9953 29.3292 18.5312C28.5716 18.0625 27.9869 17.4091 27.5749 16.571C27.1677 15.7282 26.9641 14.7481 26.9641 13.6307C26.9641 12.5133 27.1677 11.5284 27.5749 10.6761C27.9869 9.81913 28.5598 9.15152 29.2937 8.6733C30.0323 8.19034 30.8941 7.94886 31.8789 7.94886C32.4471 7.94886 33.0082 8.04356 33.5621 8.23295C34.1161 8.42235 34.6204 8.73011 35.0749 9.15625C35.5295 9.57765 35.8917 10.1364 36.1616 10.8324C36.4315 11.5284 36.5664 12.3854 36.5664 13.4034V14.1136H28.1573V12.6648H34.8619C34.8619 12.0492 34.7388 11.5 34.4925 11.017C34.2511 10.5341 33.9054 10.1529 33.4556 9.87358C33.0105 9.59422 32.485 9.45455 31.8789 9.45455C31.2113 9.45455 30.6336 9.62026 30.146 9.9517C29.663 10.2784 29.2913 10.7045 29.0309 11.2301C28.7705 11.7557 28.6403 12.3191 28.6403 12.9205V13.8864C28.6403 14.7102 28.7823 15.4086 29.0664 15.9815C29.3552 16.5497 29.7553 16.983 30.2667 17.2812C30.7781 17.5748 31.3723 17.7216 32.0494 17.7216C32.4897 17.7216 32.8874 17.66 33.2425 17.5369C33.6024 17.4091 33.9125 17.2197 34.1729 16.9688C34.4334 16.7131 34.6346 16.3958 34.7766 16.017L36.396 16.4716C36.2255 17.0208 35.939 17.5038 35.5366 17.9205C35.1341 18.3324 34.637 18.6544 34.0451 18.8864C33.4532 19.1136 32.788 19.2273 32.0494 19.2273ZM43.69 19.2273C42.6388 19.2273 41.7321 18.9953 40.9698 18.5312C40.2122 18.0625 39.6275 17.4091 39.2156 16.571C38.8084 15.7282 38.6048 14.7481 38.6048 13.6307C38.6048 12.5133 38.8084 11.5284 39.2156 10.6761C39.6275 9.81913 40.2004 9.15152 40.9343 8.6733C41.6729 8.19034 42.5347 7.94886 43.5195 7.94886C44.0877 7.94886 44.6488 8.04356 45.2028 8.23295C45.7567 8.42235 46.261 8.73011 46.7156 9.15625C47.1701 9.57765 47.5323 10.1364 47.8022 10.8324C48.0721 11.5284 48.207 12.3854 48.207 13.4034V14.1136H39.7979V12.6648H46.5025C46.5025 12.0492 46.3794 11.5 46.1332 11.017C45.8917 10.5341 45.546 10.1529 45.0962 9.87358C44.6512 9.59422 44.1256 9.45455 43.5195 9.45455C42.8519 9.45455 42.2743 9.62026 41.7866 9.9517C41.3036 10.2784 40.9319 10.7045 40.6715 11.2301C40.4111 11.7557 40.2809 12.3191 40.2809 12.9205V13.8864C40.2809 14.7102 40.4229 15.4086 40.707 15.9815C40.9959 16.5497 41.396 16.983 41.9073 17.2812C42.4187 17.5748 43.0129 17.7216 43.69 17.7216C44.1303 17.7216 44.5281 17.66 44.8832 17.5369C45.243 17.4091 45.5531 17.2197 45.8136 16.9688C46.074 16.7131 46.2752 16.3958 46.4173 16.017L48.0366 16.4716C47.8661 17.0208 47.5797 17.5038 47.1772 17.9205C46.7747 18.3324 46.2776 18.6544 45.6857 18.8864C45.0939 19.1136 44.4286 19.2273 43.69 19.2273ZM54.8761 19.2273C53.967 19.2273 53.1644 18.9976 52.4684 18.5384C51.7724 18.0743 51.2279 17.4209 50.8349 16.5781C50.4419 15.7306 50.2454 14.7292 50.2454 13.5739C50.2454 12.428 50.4419 11.4337 50.8349 10.5909C51.2279 9.74811 51.7747 9.09706 52.4755 8.63778C53.1763 8.1785 53.9859 7.94886 54.9045 7.94886C55.6147 7.94886 56.1758 8.06723 56.5877 8.30398C57.0044 8.53598 57.3216 8.80114 57.5394 9.09943C57.762 9.39299 57.9348 9.63447 58.0579 9.82386H58.1999V4.45455H59.8761V19H58.2567V17.3239H58.0579C57.9348 17.5227 57.7596 17.7737 57.5323 18.0767C57.305 18.375 56.9807 18.6425 56.5593 18.8793C56.1379 19.1113 55.5768 19.2273 54.8761 19.2273ZM55.1033 17.7216C55.7757 17.7216 56.3439 17.5464 56.8079 17.196C57.2719 16.8409 57.6246 16.3509 57.8661 15.7259C58.1076 15.0961 58.2283 14.3693 58.2283 13.5455C58.2283 12.7311 58.11 12.0185 57.8732 11.4077C57.6365 10.7921 57.2861 10.3139 56.8221 9.97301C56.3581 9.62737 55.7852 9.45455 55.1033 9.45455C54.3931 9.45455 53.8013 9.63684 53.3278 10.0014C52.859 10.3613 52.5063 10.8513 52.2695 11.4716C52.0375 12.0871 51.9215 12.7784 51.9215 13.5455C51.9215 14.322 52.0399 15.0275 52.2766 15.6619C52.5181 16.2917 52.8732 16.7936 53.342 17.1676C53.8155 17.5369 54.4026 17.7216 55.1033 17.7216ZM12.3068 28.4545H14.0682V38.0852C14.0682 39.0795 13.8338 39.9673 13.3651 40.7486C12.901 41.5251 12.2453 42.1383 11.3977 42.5881C10.5502 43.0331 9.55587 43.2557 8.41477 43.2557C7.27367 43.2557 6.27936 43.0331 5.43182 42.5881C4.58428 42.1383 3.92614 41.5251 3.45739 40.7486C2.99337 39.9673 2.76136 39.0795 2.76136 38.0852V28.4545H4.52273V37.9432C4.52273 38.6534 4.67898 39.2855 4.99148 39.8395C5.30398 40.3887 5.74905 40.822 6.3267 41.1392C6.90909 41.4517 7.60511 41.608 8.41477 41.608C9.22443 41.608 9.92045 41.4517 10.5028 41.1392C11.0852 40.822 11.5303 40.3887 11.8381 39.8395C12.1506 39.2855 12.3068 38.6534 12.3068 37.9432V28.4545ZM17.5856 43V28.4545H22.5004C23.6415 28.4545 24.5742 28.6605 25.2987 29.0724C26.0278 29.4796 26.5676 30.0312 26.918 30.7273C27.2683 31.4233 27.4435 32.1998 27.4435 33.0568C27.4435 33.9138 27.2683 34.6927 26.918 35.3935C26.5723 36.0942 26.0373 36.6529 25.3129 37.0696C24.5884 37.4815 23.6604 37.6875 22.5288 37.6875H19.006V36.125H22.4719C23.2532 36.125 23.8806 35.9901 24.354 35.7202C24.8275 35.4503 25.1708 35.0857 25.3839 34.6264C25.6017 34.1624 25.7106 33.6392 25.7106 33.0568C25.7106 32.4744 25.6017 31.9536 25.3839 31.4943C25.1708 31.035 24.8252 30.6752 24.3469 30.4148C23.8687 30.1496 23.2343 30.017 22.4435 30.017H19.3469V43H17.5856Z" fill="#F34E4E"/>
    </g>
    <defs>
    <filter id="filter0_i_0_1" x="2.13635" y="4.25568" width="57.7397" height="43" filterUnits="userSpaceOnUse" color-interpolation-filters="sRGB">
    <feFlood flood-opacity="0" result="BackgroundImageFix"/>
    <feBlend mode="normal" in="SourceGraphic" in2="BackgroundImageFix" result="shape"/>
    <feColorMatrix in="SourceAlpha" type="matrix" values="0 0 0 0 0 0 0 0 0 0 0 0 0 0 0 0 0 0 127 0" result="hardAlpha"/>
    <feOffset dy="4"/>
    <feGaussianBlur stdDeviation="2"/>
    <feComposite in2="hardAlpha" operator="arithmetic" k2="-1" k3="1"/>
    <feColorMatrix type="matrix" values="0 0 0 0 0 0 0 0 0 0 0 0 0 0 0 0 0 0 0.25 0"/>
    <feBlend mode="normal" in2="shape" result="effect1_innerShadow_0_1"/>
    </filter>
    </defs>
    </svg>
    